<svg width="25" height="23" viewBox="0 0 25 23" fill="none" xmlns="http://www.w3.org/2000/svg">
<path d="M9.47266 0.6875H15.4785C16.5039 0.6875 17.3828 1.37109 17.6758 2.29883L18.2129 3.8125H21.875C23.584 3.8125 25 5.22852 25 6.9375V19.4375C25 21.1953 23.584 22.5625 21.875 22.5625H3.125C1.36719 22.5625 0 21.1953 0 19.4375V6.9375C0 5.22852 1.36719 3.8125 3.125 3.8125H6.73828L7.27539 2.29883C7.56836 1.37109 8.44727 0.6875 9.47266 0.6875ZM12.5 17.875C15.0879 17.875 17.1875 15.7754 17.1875 13.1875C17.1875 10.5996 15.0879 8.5 12.5 8.5C9.86328 8.5 7.8125 10.5996 7.8125 13.1875C7.8125 15.7754 9.86328 17.875 12.5 17.875Z" fill="black"/>
</svg>
