<svg width="21" height="24" viewBox="0 0 21 24" fill="none" xmlns="http://www.w3.org/2000/svg">
<path d="M4.03125 9.5V7.34375C4.03125 3.79492 6.90625 0.875 10.5 0.875C14.0488 0.875 16.9688 3.79492 16.9688 7.34375V9.5H17.6875C19.2598 9.5 20.5625 10.8027 20.5625 12.375V21C20.5625 22.6172 19.2598 23.875 17.6875 23.875H3.3125C1.69531 23.875 0.4375 22.6172 0.4375 21V12.375C0.4375 10.8027 1.69531 9.5 3.3125 9.5H4.03125ZM6.90625 9.5H14.0938V7.34375C14.0938 5.36719 12.4766 3.75 10.5 3.75C8.47852 3.75 6.90625 5.36719 6.90625 7.34375V9.5Z" fill="black"/>
</svg>
