<svg width="26" height="30" viewBox="0 0 26 30" fill="none" xmlns="http://www.w3.org/2000/svg">
    <path d="M18.5714 26.25V28.5938C18.5714 29.3704 17.9478 30 17.1786 30H1.39286C0.623594 30 0 29.3704 0 28.5938V7.03125C0 6.25459 0.623594 5.625 1.39286 5.625H5.57143V22.9688C5.57143 24.7781 7.02934 26.25 8.82143 26.25H18.5714ZM18.5714 6.09375V0H8.82143C8.05217 0 7.42857 0.62959 7.42857 1.40625V22.9688C7.42857 23.7454 8.05217 24.375 8.82143 24.375H24.6071C25.3764 24.375 26 23.7454 26 22.9688V7.5H19.9643C19.1982 7.5 18.5714 6.86719 18.5714 6.09375ZM25.5921 4.27564L21.7651 0.411855C21.5039 0.14815 21.1496 1.94998e-06 20.7802 0L20.4286 0V5.625H26V5.26998C26 4.89704 25.8533 4.53936 25.5921 4.27564Z"
          fill="#003333"/>
</svg>
