<svg width="29" height="23" viewBox="0 0 29 23" fill="none" xmlns="http://www.w3.org/2000/svg">
<path d="M10.332 11.75C7.32422 11.75 4.875 9.30078 4.875 6.25C4.875 3.24219 7.32422 0.75 10.332 0.75C13.3398 0.75 15.832 3.24219 15.832 6.25C15.832 9.30078 13.3398 11.75 10.332 11.75ZM12.5234 13.8125C14.543 13.8125 16.3477 14.6289 17.6797 15.918L15.7031 17.8516C15.4023 18.1523 15.2305 18.5391 15.1445 18.9688L14.5 22.0195C14.457 22.2773 14.457 22.5352 14.543 22.75H2.21094C1.39453 22.75 0.75 22.1055 0.75 21.2891C0.75 17.1641 4.05859 13.8125 8.18359 13.8125H12.5234ZM16.6914 18.8398L22.0625 13.4688L25.1562 16.5625L19.7852 21.9336C19.6562 22.0625 19.5273 22.1055 19.3984 22.1484L16.3047 22.75C16.0469 22.8359 15.7891 22.5781 15.875 22.3203L16.4766 19.2266C16.5195 19.0977 16.5625 18.9688 16.6914 18.8398ZM27.7773 11.75C28.3789 12.3516 28.3789 13.3398 27.7773 13.9414L26.1445 15.5742L23.0508 12.4805L24.6836 10.8477C25.2852 10.2461 26.2734 10.2461 26.875 10.8477L27.7773 11.75Z" fill="black"/>
</svg>
