<svg width="61" height="61" viewBox="0 0 61 61" fill="none" xmlns="http://www.w3.org/2000/svg">
<g clip-path="url(#clip0_684_1213)">
<path d="M21.1391 1.67174C13.7095 4.21658 7.37238 9.78403 3.85416 16.8038C2.62462 19.2295 1.73584 21.8077 1.20685 24.4729C-0.14182 31.0995 0.797008 38.1538 3.85416 44.199C5.83546 48.1437 8.68769 51.6453 12.138 54.3784C15.4001 56.9744 19.1911 58.8878 23.2228 59.9637C28.2959 61.3302 33.7096 61.2957 38.8326 60.134C43.4613 59.0749 47.8337 56.8553 51.3174 53.6445C55.006 50.2454 57.6366 45.7883 59.0377 40.9893C60.5579 35.746 60.7629 30.1606 59.8062 24.7981C50.2416 24.7981 40.6769 24.7981 31.0957 24.7981C31.0957 28.7607 31.0957 32.74 31.0957 36.7027C36.6297 36.7027 42.1805 36.7027 47.7134 36.7027C47.0641 40.5116 44.8099 43.9786 41.5991 46.1303C39.5832 47.4789 37.2779 48.3677 34.8867 48.7776C32.4789 49.1874 30.0019 49.2386 27.6108 48.7609C25.1684 48.2831 22.8452 47.2573 20.8138 45.8229C17.5684 43.5509 15.0927 40.2042 13.8286 36.4632C12.5312 32.6543 12.5133 28.4021 13.8286 24.5932C14.7341 21.9113 16.2543 19.4177 18.2523 17.4031C20.7114 14.8749 23.9055 13.0818 27.3558 12.3479C30.3105 11.7165 33.4189 11.8356 36.3057 12.7065C38.7647 13.4583 41.0201 14.7903 42.8811 16.5667C44.7599 14.7045 46.6209 12.8269 48.4997 10.9647C49.4731 9.95678 50.5156 9.00008 51.4711 7.95879C48.6355 5.32817 45.2889 3.21104 41.6503 1.87905C35.1262 -0.56572 27.7311 -0.61695 21.1391 1.67174Z" fill="white"/>
<path d="M21.1391 1.6715C27.7312 -0.617192 35.1274 -0.565962 41.6849 1.85974C45.3223 3.19173 48.6535 5.31005 51.5057 7.93949C50.549 8.9641 49.5244 9.93748 48.5343 10.9454C46.6555 12.8076 44.7945 14.6852 42.9156 16.5474C41.0535 14.771 38.7993 13.4223 36.3403 12.6872C33.4535 11.8163 30.3451 11.6972 27.3904 12.3286C23.9401 13.0625 20.7471 14.8735 18.2869 17.3838C16.2889 19.3996 14.7687 21.8932 13.8632 24.5739C10.5332 21.9945 7.20205 19.3984 3.87207 16.8202C7.37242 9.78378 13.7095 4.21634 21.1391 1.6715Z" fill="#E94435"/>
<path d="M1.20685 24.4725C1.73584 21.8086 2.6413 19.2292 3.85416 16.8035C7.18414 19.3829 10.5153 21.9789 13.8453 24.5571C12.53 28.3661 12.5478 32.6182 13.8453 36.4271C10.5153 39.0065 7.18414 41.6026 3.85416 44.1808C0.797008 38.1701 -0.14182 31.0992 1.20685 24.4725Z" fill="#F8BB15"/>
<path d="M31.1123 24.78C40.6769 24.78 50.2416 24.78 59.8228 24.78C60.7795 30.1425 60.5746 35.7279 59.0544 40.9712C57.6545 45.7702 55.0239 50.2451 51.3341 53.6264C48.1066 51.1161 44.8612 48.6046 41.6503 46.0943C44.8612 43.9593 47.1153 40.4756 47.7646 36.6667C42.2305 36.6667 36.6798 36.6667 31.1469 36.6667C31.0957 32.7219 31.1123 28.7593 31.1123 24.78Z" fill="#547DBE"/>
<path d="M3.85413 44.1987C7.18411 41.6193 10.5153 39.0233 13.8453 36.4451C15.1093 40.2028 17.5851 43.5327 20.8305 45.8048C22.863 47.2392 25.1851 48.2471 27.6274 48.7428C30.0186 49.2205 32.5122 49.1693 34.9034 48.7594C37.2945 48.3496 39.5999 47.462 41.6157 46.1121C44.8433 48.6224 48.0887 51.1339 51.2995 53.6442C47.8158 56.8717 43.4434 59.0758 38.8148 60.1338C33.7084 61.2954 28.2934 61.3288 23.2049 59.9634C19.1744 58.8876 15.3822 56.9742 12.1201 54.3781C8.68766 51.6284 5.83543 48.1268 3.85413 44.1987Z" fill="#34A751"/>
</g>
<defs>
<clipPath id="clip0_684_1213">
<rect width="61" height="61" fill="white"/>
</clipPath>
</defs>
</svg>
