<svg width="21" height="19" viewBox="0 0 21 19" fill="none" xmlns="http://www.w3.org/2000/svg">
<path d="M3.75 18.25C1.64062 18.25 0 16.5703 0 14.5V4.5C0 2.42969 1.64062 0.75 3.75 0.75H6.25C6.91406 0.75 7.5 1.33594 7.5 2C7.5 2.70312 6.91406 3.25 6.25 3.25H3.75C3.04688 3.25 2.5 3.83594 2.5 4.5V14.5C2.5 15.2031 3.04688 15.75 3.75 15.75H6.25C6.91406 15.75 7.5 16.3359 7.5 17C7.5 17.7031 6.91406 18.25 6.25 18.25H3.75ZM19.6875 8.83594C20.0781 9.1875 20.0781 9.85156 19.6875 10.1641L14.0625 15.4766C13.7891 15.75 13.3984 15.7891 13.0469 15.6719C12.6953 15.5156 12.5 15.1641 12.5 14.8125V12H7.5C6.79688 12 6.25 11.4531 6.25 10.75V8.25C6.25 7.58594 6.79688 7 7.5 7H12.5V4.1875C12.5 3.83594 12.6953 3.48438 13.0469 3.32812C13.3984 3.21094 13.7891 3.25 14.0625 3.52344L19.6875 8.83594Z" fill="#FF0000"/>
</svg>
