<svg width="18" height="18" viewBox="0 0 18 18" fill="none" xmlns="http://www.w3.org/2000/svg">
<path d="M16.9668 12.9746L16.1699 16.3281C16.0703 16.8262 15.6719 17.1582 15.1738 17.1582C6.80664 17.125 0 10.3184 0 1.95117C0 1.45312 0.298828 1.05469 0.796875 0.955078L4.15039 0.158203C4.61523 0.0585938 5.11328 0.324219 5.3125 0.755859L6.87305 4.375C7.03906 4.80664 6.93945 5.30469 6.57422 5.57031L4.78125 7.03125C5.91016 9.32227 7.76953 11.1816 10.0938 12.3105L11.5547 10.5176C11.8203 10.1855 12.3184 10.0527 12.75 10.2188L16.3691 11.7793C16.8008 12.0117 17.0664 12.5098 16.9668 12.9746Z" fill="#7C7979"/>
</svg>
